<svg width="281" height="219" viewBox="0 0 281 219" fill="none" xmlns="http://www.w3.org/2000/svg">
<path d="M229.979 176.96L140.404 219V129.102L229.979 87.0626V176.96ZM172.436 146.517V171.441L197.947 159.511V134.621L172.436 146.517Z" fill="white"/>
<path d="M140.404 204.755L50.8294 162.715V176.96L140.404 219V204.755Z" fill="white"/>
<path d="M50.8294 105.226L64.256 111.655V183.281L50.8294 177.002V105.226Z" fill="white"/>
<path d="M26.8532 78.2413L38.3618 83.2281V154.948L26.8532 150.03V78.2413Z" fill="white"/>
<path d="M281 65.6805L140.5 131.361L37.5168 83.2187L129.268 40.8559L119.055 35.3254L26.8613 78.2374L0 65.6805L140.5 0L281 65.6805ZM37.5168 83.2187L37.4986 83.2273L26.8532 78.2413L26.8613 78.2374L37.5168 83.2187Z" fill="white"/>
<path d="M24.4556 121.528L40.8553 128.815L40.8552 156.115L24.4556 148.978L24.4556 121.528Z" fill="white"/>
</svg>
